<?xml version="1.0" standalone="no"?>
<!DOCTYPE svg PUBLIC "-//W3C//DTD SVG 20010904//EN"
 "http://www.w3.org/TR/2001/REC-SVG-20010904/DTD/svg10.dtd">
<svg version="1.0" xmlns="http://www.w3.org/2000/svg"
 width="300.000000pt" height="216.000000pt" viewBox="0 0 300.000000 216.000000"
 preserveAspectRatio="xMidYMid meet">
<metadata>
Created by potrace 1.10, written by Peter Selinger 2001-2011
</metadata>
<g transform="translate(0.000000,216.000000) scale(0.100000,-0.100000)"
fill="#000000" stroke="none">
<path d="M203 1913 c32 -2 81 -2 110 0 29 2 3 3 -58 3 -60 0 -84 -1 -52 -3z"/>
<path d="M453 1913 c48 -2 125 -2 170 0 45 1 6 3 -88 3 -93 0 -130 -2 -82 -3z"/>
<path d="M750 1910 c0 -3 19 -17 43 -32 23 -15 73 -59 112 -97 l69 -71 918 0
918 0 0 103 0 102 -1030 0 c-567 0 -1030 -2 -1030 -5z m2022 -42 c12 -34 8
-105 -5 -116 -11 -9 -225 -12 -895 -10 l-881 3 -61 60 c-33 33 -60 63 -60 67
0 4 427 8 949 8 750 0 950 -3 953 -12z"/>
<path d="M1269 1615 c-1 -19 -2 -39 -3 -45 -2 -25 19 -12 25 15 l7 30 1 -27
c1 -32 31 -40 31 -9 0 11 5 23 10 26 6 4 10 -5 10 -19 0 -14 5 -26 11 -26 8 0
9 11 5 31 -3 17 -6 38 -6 45 0 26 -21 14 -32 -18 l-12 -33 -8 33 c-12 44 -38
42 -39 -3z"/>
<path d="M1390 1629 c-28 -51 22 -97 61 -58 14 14 18 27 13 42 -13 41 -56 51
-74 16z m46 -14 c4 -8 3 -23 0 -32 -6 -15 -8 -15 -23 -1 -16 17 -12 48 7 48 6
0 13 -7 16 -15z"/>
<path d="M1492 1638 c-36 -36 4 -101 48 -78 37 20 21 90 -20 90 -9 0 -21 -5
-28 -12z m44 -23 c4 -8 4 -22 0 -30 -7 -19 -36 -8 -36 14 0 32 26 43 36 16z"/>
<path d="M1580 1605 c0 -25 5 -45 10 -45 6 0 10 8 10 18 1 16 1 16 14 0 21
-28 42 -23 23 5 -13 20 -13 25 1 45 18 27 -3 32 -24 5 -13 -17 -13 -17 -14 0
0 9 -4 17 -10 17 -5 0 -10 -20 -10 -45z"/>
<path d="M1660 1604 c0 -42 1 -44 30 -44 35 0 40 17 8 23 l-23 4 23 2 c27 1
30 21 2 21 -11 0 -20 5 -20 10 0 6 16 10 35 10 33 0 35 -2 35 -35 0 -24 5 -35
14 -35 11 0 13 9 9 35 -7 42 11 47 45 11 27 -29 28 -36 2 -29 -23 6 -27 -12
-5 -21 37 -14 67 26 35 46 -24 15 -26 28 -5 28 8 0 15 5 15 10 0 14 -33 13
-48 -2 -9 -9 -12 -9 -12 0 0 7 -24 11 -70 11 l-70 0 0 -45z"/>
<path d="M1880 1605 c0 -25 5 -45 10 -45 6 0 10 20 10 45 0 25 -4 45 -10 45
-5 0 -10 -20 -10 -45z"/>
<path d="M1948 1620 c-1 -16 -2 -37 -2 -45 -1 -8 4 -14 9 -12 6 1 10 7 10 14
0 6 4 15 8 19 4 4 7 -2 7 -14 0 -28 20 -29 27 -2 3 11 10 20 15 20 5 0 6 -9 3
-20 -5 -15 -2 -20 10 -20 12 0 15 5 11 16 -3 9 -6 29 -6 45 0 40 -26 38 -36
-3 l-7 -33 -10 33 c-12 41 -36 42 -39 2z"/>
<path d="M2070 1609 c-6 -23 -8 -44 -4 -48 4 -3 9 0 11 7 5 14 33 16 33 2 0
-5 6 -10 14 -10 13 0 13 6 -1 45 -19 56 -39 58 -53 4z"/>
<path d="M2150 1606 c0 -25 5 -46 10 -46 6 0 10 6 10 14 0 7 9 16 21 19 32 9
22 51 -13 55 -27 3 -28 2 -28 -42z"/>
<path d="M2230 1610 c0 -73 65 -74 72 -1 2 20 -2 36 -9 38 -7 3 -13 -10 -15
-34 -4 -49 -22 -49 -26 0 -4 49 -22 48 -22 -3z"/>
<path d="M2338 1639 c-18 -10 -23 -35 -12 -63 4 -10 18 -16 40 -16 30 0 34 3
34 25 0 16 -6 25 -16 25 -10 0 -14 -6 -11 -15 8 -20 -8 -28 -23 -10 -18 21 -5
45 25 45 15 0 24 4 20 10 -8 13 -35 12 -57 -1z"/>
<path d="M2415 1613 c3 -21 10 -42 15 -47 12 -13 30 2 31 27 1 21 1 21 8 -2
10 -36 27 -36 40 0 14 40 14 59 1 59 -5 0 -10 -9 -10 -19 0 -11 -4 -23 -10
-26 -6 -4 -10 5 -10 20 0 32 -23 29 -28 -3 -4 -27 -22 -19 -22 9 0 10 -5 19
-11 19 -8 0 -9 -13 -4 -37z"/>
<path d="M2544 1633 c-3 -10 -10 -28 -15 -41 -12 -30 -12 -32 6 -32 8 0 15 5
15 10 0 16 22 12 36 -7 17 -23 18 -4 2 48 -12 41 -35 52 -44 22z"/>
<path d="M547 1590 c-108 -28 -202 -105 -250 -208 -26 -56 -31 -78 -31 -143 0
-66 5 -86 32 -142 38 -77 111 -148 190 -185 49 -23 70 -27 152 -27 81 0 103 4
152 27 193 90 275 306 184 487 -31 61 -113 136 -182 168 -62 28 -182 39 -247
23z m246 -53 c123 -61 191 -166 191 -297 0 -60 -6 -87 -27 -133 -26 -57 -47
-74 -47 -38 0 11 6 22 13 25 10 5 10 7 0 12 -7 3 -13 23 -13 44 0 21 6 41 13
44 10 5 10 7 0 12 -7 3 -13 13 -13 23 0 26 -21 43 -37 30 -18 -15 -17 -30 2
-23 12 5 15 -3 17 -37 3 -72 -3 -144 -13 -147 -18 -7 -8 -20 11 -15 34 9 22
-11 -27 -49 -82 -61 -110 -71 -210 -76 -82 -4 -97 -2 -147 21 -52 24 -136 83
-136 96 0 4 90 6 200 6 110 0 200 1 200 2 0 1 -5 14 -10 29 -14 37 -2 124 16
117 10 -4 14 4 14 26 0 17 5 31 10 31 6 0 10 -8 10 -17 0 -16 2 -16 11 -3 8
12 9 10 5 -10 -3 -14 -6 -31 -6 -37 0 -7 -11 -13 -25 -13 -23 0 -25 -3 -25
-48 0 -49 21 -92 44 -92 19 0 52 40 65 79 15 46 14 51 -9 51 -15 0 -20 -7 -20
-24 0 -14 -4 -27 -9 -31 -18 -10 -20 11 -6 56 7 24 14 36 14 26 1 -10 6 -15
11 -12 14 8 13 42 -1 47 -16 5 6 110 34 165 23 46 19 57 -25 68 -23 6 -28 3
-34 -19 -3 -15 -1 -32 5 -39 7 -9 8 -38 4 -80 -6 -65 -15 -83 -27 -52 -9 24
-26 17 -41 -17 -11 -26 -14 -28 -15 -12 0 12 -7 28 -16 35 -14 11 -18 10 -30
-6 -16 -22 -17 -31 -14 -104 1 -35 -2 -51 -9 -47 -5 4 -8 13 -5 20 3 8 1 17
-5 21 -6 3 -11 35 -11 70 0 48 4 64 16 69 9 3 20 4 25 1 17 -11 48 15 70 59
21 43 21 45 4 77 -10 19 -21 41 -25 49 -4 8 -15 17 -26 19 -10 2 -26 14 -37
27 -22 28 -60 31 -85 7 -9 -10 -30 -24 -45 -30 -20 -9 -27 -20 -28 -40 -1 -66
2 -137 7 -144 3 -5 22 -13 43 -19 38 -10 39 -12 43 -59 3 -49 3 -50 -25 -44
-23 5 -29 2 -34 -16 -3 -11 -12 -21 -19 -21 -16 0 -19 16 -4 25 6 3 10 17 10
31 0 22 -4 24 -50 24 -50 0 -70 16 -28 22 26 3 52 48 38 62 -6 6 -21 2 -40
-12 l-30 -23 0 31 c0 25 4 30 25 30 20 0 25 5 25 24 0 14 5 28 10 31 19 12 10
45 -15 55 -14 5 -25 14 -25 20 0 15 -40 12 -46 -4 -3 -8 -16 -17 -30 -20 -24
-7 -34 -39 -14 -51 6 -3 10 -17 10 -31 0 -19 5 -24 25 -24 20 0 25 -5 25 -25
l0 -25 -32 20 c-39 24 -68 26 -68 5 0 -25 46 -65 75 -65 14 0 25 -4 25 -10 0
-5 -25 -10 -55 -10 -61 0 -67 -8 -41 -58 19 -38 30 -122 16 -122 -6 0 -23 26
-38 58 -71 152 -5 342 148 422 93 49 231 51 323 7z m-90 -71 c21 -16 27 -26
22 -43 -4 -17 -1 -23 11 -23 10 0 14 -7 12 -22 -3 -22 -23 -29 -23 -9 0 5 -3
13 -7 17 -5 4 -8 0 -8 -9 0 -9 5 -19 10 -22 19 -12 10 -24 -22 -33 -28 -7 -35
-5 -43 12 -8 15 -20 21 -45 21 -31 0 -35 3 -38 28 -3 25 -1 27 20 22 17 -4 32
0 49 14 20 18 21 20 4 14 -11 -3 -26 -11 -34 -17 -10 -8 -12 -6 -10 9 3 12 14
21 27 23 19 3 21 6 11 19 -10 12 -10 16 1 23 15 9 20 7 63 -24z m187 -56 c0
-5 -5 -12 -11 -16 -14 -8 -33 11 -25 25 7 11 36 4 36 -9z m-240 -80 c0 -11
-22 -18 -37 -12 -24 8 -14 29 12 24 14 -2 25 -8 25 -12z m90 -175 c0 -47 0
-88 1 -92 0 -4 -4 -9 -10 -11 -7 -2 -11 28 -11 92 0 57 4 96 10 96 6 0 10 -35
10 -85z m-200 40 c0 -12 -17 -15 -90 -15 -73 0 -90 3 -90 15 0 12 17 15 90 15
73 0 90 -3 90 -15z m-20 -40 c0 -2 -5 -26 -10 -52 l-11 -48 -52 1 -52 2 -11
51 -12 51 74 0 c41 0 74 -2 74 -5z m135 -35 c18 -34 18 -40 5 -40 -5 0 -10 6
-10 13 0 19 -37 51 -44 39 -3 -6 1 -12 9 -16 8 -3 15 -12 15 -21 0 -19 -16
-20 -24 0 -3 8 -12 15 -21 15 -18 0 -19 6 -2 25 21 25 55 18 72 -15z"/>
<path d="M460 990 c0 -6 67 -10 180 -10 113 0 180 4 180 10 0 6 -67 10 -180
10 -113 0 -180 -4 -180 -10z"/>
<path d="M530 950 c0 -6 33 -10 80 -10 47 0 80 4 80 10 0 6 -33 10 -80 10 -47
0 -80 -4 -80 -10z"/>
<path d="M1105 1492 c4 -10 16 -43 27 -74 l20 -57 829 2 829 2 0 72 0 72 -856
-1 c-793 0 -855 -1 -849 -16z m155 -50 c0 -53 -55 -72 -84 -30 -30 43 -21 58
34 58 48 0 50 -1 50 -28z m81 12 c12 -14 14 -14 20 3 6 15 8 14 8 -7 1 -14 4
-20 9 -14 8 14 60 15 68 2 4 -5 10 -5 17 0 7 5 25 12 41 16 26 6 28 5 22 -16
-3 -13 -6 -29 -6 -35 0 -7 -4 -13 -10 -13 -5 0 -10 9 -10 20 0 11 -7 20 -15
20 -8 0 -15 -7 -15 -15 0 -8 5 -15 11 -15 5 0 7 -5 3 -12 -5 -8 -12 -5 -23 9
-9 11 -22 18 -30 15 -11 -4 -11 -6 0 -14 11 -7 9 -8 -6 -6 -12 2 -19 11 -19
21 1 9 -2 17 -7 17 -5 0 -9 -9 -9 -20 0 -11 -4 -20 -10 -20 -5 0 -10 6 -10 13
0 8 -4 7 -10 -3 -8 -13 -10 -13 -10 0 0 11 -3 11 -12 2 -7 -7 -22 -12 -35 -12
-18 0 -23 6 -23 24 0 54 32 75 61 40z m1436 -14 c7 -58 33 -55 -574 -55 l-558
0 -3 33 -3 33 -20 -22 c-10 -12 -19 -25 -19 -29 0 -4 -14 -7 -31 -8 -35 -1
-49 22 -26 45 19 19 37 9 38 -20 1 -20 2 -20 6 -2 3 11 15 28 26 37 20 16 64
17 591 15 l569 -2 4 -25z"/>
<path d="M1300 1424 c0 -22 2 -25 15 -14 8 7 15 19 15 26 0 8 -7 14 -15 14
-10 0 -15 -10 -15 -26z"/>
<path d="M1160 1330 c0 -8 3 -25 6 -37 l6 -23 819 0 819 0 0 38 0 37 -825 0
c-727 0 -825 -2 -825 -15z m653 -17 c-34 -2 -93 -2 -130 0 -37 2 -9 3 62 3 72
0 102 -1 68 -3z m465 0 c-64 -2 -172 -2 -240 0 -68 1 -15 3 117 3 132 0 187
-2 123 -3z"/>
<path d="M1270 1165 c0 -25 5 -45 10 -45 6 0 10 7 10 15 0 8 7 15 15 15 8 0
15 5 15 10 0 6 -7 10 -15 10 -8 0 -15 5 -15 10 0 6 9 10 20 10 11 0 20 5 20
10 0 6 -13 10 -30 10 -29 0 -30 -2 -30 -45z"/>
<path d="M1338 1165 c-13 -37 -13 -45 -2 -45 8 0 14 5 14 10 0 6 7 10 15 10 8
0 15 -4 15 -10 0 -5 6 -10 14 -10 12 0 12 7 1 43 -17 58 -39 59 -57 2z"/>
<path d="M1420 1165 c0 -25 5 -45 10 -45 6 0 10 7 10 15 0 8 5 15 10 15 6 0
10 -7 10 -15 0 -10 10 -15 30 -15 17 0 30 5 30 10 0 6 7 10 15 10 8 0 15 -4
15 -10 0 -5 6 -10 14 -10 13 0 13 6 -1 45 -19 56 -38 57 -54 5 -7 -22 -15 -40
-20 -40 -13 0 -20 32 -9 45 13 16 -7 35 -37 35 -21 0 -23 -5 -23 -45z"/>
<path d="M1590 1165 c0 -25 5 -45 10 -45 6 0 10 20 10 45 0 25 -4 45 -10 45
-5 0 -10 -20 -10 -45z"/>
<path d="M1660 1188 c0 -13 -3 -33 -6 -45 -5 -17 -2 -23 9 -23 9 0 17 11 20
28 l4 27 2 -27 c1 -32 20 -37 28 -8 3 11 10 20 15 20 5 0 6 -9 3 -20 -5 -15
-2 -20 10 -20 12 0 15 5 11 16 -3 9 -6 29 -6 45 0 37 -23 38 -37 2 l-10 -28
-8 28 c-9 33 -35 36 -35 5z"/>
<path d="M1780 1169 c-6 -23 -8 -44 -4 -48 4 -3 9 0 11 7 5 14 33 16 33 2 0
-5 6 -10 14 -10 13 0 13 6 -1 45 -19 56 -39 58 -53 4z"/>
<path d="M1860 1165 c0 -43 1 -45 28 -45 33 0 52 16 52 45 0 29 -19 45 -52 45
-27 0 -28 -2 -28 -45z m55 0 c0 -11 -8 -21 -17 -23 -14 -3 -18 3 -18 23 0 20
4 26 18 23 9 -2 17 -12 17 -23z"/>
<path d="M1958 1184 c-14 -31 -1 -57 31 -62 28 -4 51 14 51 42 0 50 -62 65
-82 20z m60 -17 c4 -20 -25 -34 -39 -20 -14 14 1 45 20 41 9 -2 17 -11 19 -21z"/>
<path d="M2050 1165 c0 -25 5 -45 10 -45 6 0 10 7 10 15 0 8 4 15 9 15 5 0 11
-7 15 -15 3 -8 9 -15 14 -15 8 0 8 14 3 83 -1 4 -14 7 -31 7 -29 0 -30 -2 -30
-45z"/>
<path d="M2142 1198 c-30 -30 -8 -81 34 -76 27 3 29 6 29 43 0 35 -3 40 -25
43 -14 2 -31 -3 -38 -10z m48 -33 c0 -18 -5 -25 -20 -25 -20 0 -28 28 -13 43
15 16 33 6 33 -18z"/>
<path d="M2230 1166 c0 -44 1 -46 29 -46 27 0 47 21 33 35 -3 3 -7 16 -7 28 0
16 -7 23 -27 25 -27 3 -28 2 -28 -42z"/>
<path d="M2322 1198 c-13 -13 -15 -37 -6 -62 10 -26 62 -20 75 8 22 47 -33 90
-69 54z m48 -33 c0 -25 -23 -35 -35 -15 -10 16 2 40 20 40 9 0 15 -9 15 -25z"/>
<path d="M1180 1048 c0 -13 -3 -45 -6 -73 l-6 -50 821 0 821 0 0 73 0 72 -815
0 -815 0 0 -22z m1591 -29 c5 -8 8 -25 7 -39 l-3 -25 -549 -3 -548 -2 4 25 c3
15 -1 30 -10 37 -13 11 -12 13 7 18 12 3 261 5 552 4 447 -1 532 -3 540 -15z
m-1508 -21 c-7 -40 -4 -35 -28 -40 -15 -2 -21 3 -23 20 -5 36 5 52 32 52 23 0
25 -3 19 -32z m47 12 c0 -11 4 -20 9 -20 5 0 13 9 16 20 9 27 25 25 25 -2 0
-17 3 -19 12 -10 19 19 38 14 39 -10 l0 -23 9 23 c10 23 34 30 45 12 4 -7 11
-7 18 -2 7 5 31 9 55 10 33 1 42 -3 42 -16 1 -16 1 -16 11 1 5 9 17 17 24 17
17 0 20 -26 5 -35 -6 -4 -8 -11 -5 -16 4 -5 -1 -9 -9 -9 -8 0 -18 5 -22 12 -5
7 -10 4 -15 -10 -5 -12 -16 -22 -26 -22 -13 0 -15 2 -5 9 10 6 10 10 -3 21
-10 8 -15 9 -15 1 0 -6 -14 -10 -35 -8 -27 1 -35 6 -35 22 -1 20 -1 20 -13 0
-16 -28 -77 -34 -78 -8 0 16 -1 16 -9 -2 -8 -19 -9 -19 -9 -1 -1 19 -1 19 -14
1 -11 -14 -16 -15 -22 -5 -6 10 -9 9 -16 -1 -14 -24 -19 -4 -7 34 12 40 28 49
28 17z m356 -12 c-3 -7 -9 -21 -12 -30 -6 -18 -24 -25 -24 -10 1 25 14 52 27
52 8 0 12 -6 9 -12z"/>
<path d="M1139 835 c-28 -92 -80 -195 -140 -277 -50 -67 -172 -188 -189 -188
-6 0 -10 -4 -10 -10 0 -7 342 -10 1005 -10 l1005 0 0 278 0 277 -825 0 -825 0
-21 -70z m1634 31 c9 -23 8 -450 -1 -464 -7 -10 -201 -12 -938 -10 l-929 3 32
33 c18 18 42 47 55 65 12 18 25 34 29 37 30 23 121 199 153 298 l18 52 788 0
c668 0 789 -2 793 -14z"/>
<path d="M1370 839 c-25 -3 -35 -7 -22 -7 12 -1 25 -9 28 -17 5 -13 8 -13 21
0 8 8 19 15 24 15 11 0 12 -17 1 -22 -4 -1 0 -11 10 -20 17 -17 18 -17 28 2 9
16 8 20 -5 20 -8 0 -15 4 -15 10 0 6 50 9 130 8 102 -1 130 -5 135 -16 3 -8 1
-20 -5 -27 -13 -16 -4 -24 21 -18 16 5 18 8 7 14 -11 7 -10 11 2 19 13 8 12
10 -5 10 -14 0 -16 3 -8 11 20 20 41 3 40 -33 -2 -33 -2 -33 -57 -36 l-55 -3
23 24 c27 29 28 37 1 37 -13 0 -23 -10 -30 -30 -6 -16 -15 -30 -20 -30 -12 0
-11 27 1 35 15 9 12 25 -5 25 -8 0 -21 -13 -30 -30 -9 -16 -20 -30 -25 -30 -6
0 -10 -7 -10 -15 0 -8 -7 -15 -16 -15 -12 0 -10 7 9 33 38 51 40 57 19 57 -12
0 -24 -11 -32 -30 -7 -16 -16 -30 -21 -30 -12 0 -11 17 1 41 8 15 7 19 -4 19
-15 0 -36 -29 -36 -49 0 -5 9 -13 20 -16 11 -3 20 -11 20 -16 0 -5 -9 -9 -20
-9 -11 0 -20 7 -20 15 0 15 -15 19 -57 16 -14 -2 -24 5 -28 19 -3 11 -11 18
-16 14 -6 -4 -6 -11 2 -20 9 -11 7 -14 -15 -14 -29 0 -33 11 -11 30 20 16 19
27 -2 33 -10 2 -26 8 -37 12 -18 8 -18 7 -1 -19 14 -21 15 -29 5 -41 -14 -17
-35 -21 -25 -5 3 6 -1 10 -11 10 -27 0 2 -28 33 -32 40 -5 39 -25 -1 -38 -20
-6 -36 -16 -36 -21 0 -13 18 -11 23 4 3 8 11 4 24 -12 11 -14 25 -21 31 -17
17 10 15 26 -3 26 -17 0 -20 16 -4 26 6 3 18 -1 26 -9 14 -14 18 -14 41 1 25
16 26 16 19 -2 -4 -10 -2 -25 4 -33 10 -11 9 -18 -5 -31 -16 -16 -18 -16 -36
6 -11 13 -21 18 -25 12 -3 -5 -1 -10 4 -10 6 0 11 -4 11 -10 0 -5 -11 -10 -25
-10 -16 0 -25 6 -25 15 0 8 -7 15 -17 15 -9 0 -13 -3 -10 -6 4 -4 -9 -25 -29
-46 -21 -24 -33 -46 -30 -55 3 -8 6 -20 6 -26 0 -22 20 18 20 41 0 12 4 22 8
22 5 0 14 -10 20 -22 l11 -23 7 23 c9 30 34 30 26 0 -5 -21 -4 -21 11 -9 9 7
27 11 39 8 12 -4 27 -2 34 4 8 7 17 5 28 -6 15 -15 16 -14 16 9 0 32 17 34 22
4 l3 -23 20 23 c22 24 56 33 36 8 -9 -11 -6 -14 16 -18 16 -2 42 -1 58 2 43 9
55 2 55 -31 0 -22 -5 -29 -20 -29 -22 0 -28 35 -7 44 6 3 3 5 -8 3 -10 -1 -22
-11 -25 -22 -3 -13 -15 -21 -32 -23 -34 -3 -47 17 -23 35 18 12 18 13 -3 13
-15 0 -22 -6 -22 -20 0 -23 -31 -41 -38 -21 -3 9 -7 9 -18 0 -10 -8 -14 -8
-14 0 0 8 -5 8 -19 -1 -15 -9 -23 -9 -33 0 -11 9 -17 9 -26 0 -9 -9 -15 -9
-24 0 -8 8 -15 9 -25 1 -10 -9 -13 -6 -14 12 l0 24 -9 -22 c-12 -29 -18 -29
-29 -1 -8 21 -8 21 -13 -5 -3 -16 -1 -27 6 -27 76 -3 489 -12 511 -11 17 1
116 2 222 4 201 4 223 8 223 50 0 41 -32 54 -125 49 -58 -3 -90 0 -100 8 -11
9 -23 9 -48 1 -46 -16 -126 -10 -119 7 3 9 14 12 29 9 35 -6 75 30 67 61 -4
12 -12 22 -18 22 -22 0 -26 -13 -9 -25 15 -11 15 -15 4 -29 -15 -17 -41 -22
-41 -7 0 5 6 12 13 15 10 5 10 7 0 12 -20 9 -16 44 5 45 9 1 20 1 23 1 4 -1 6
10 5 23 -1 19 -7 25 -23 25 -27 0 -27 3 -10 31 10 17 10 23 0 26 -20 7 -15 23
6 23 23 0 35 -28 21 -45 -8 -9 -6 -14 5 -19 11 -4 15 2 15 23 0 53 -10 55
-278 56 -136 0 -267 -2 -292 -6z m440 -24 c9 -11 10 -18 1 -28 -14 -18 -5 -26
20 -20 16 5 18 8 7 14 -11 7 -10 11 2 19 13 8 12 10 -4 10 -15 0 -17 3 -9 11
20 20 41 3 40 -33 -2 -32 -3 -33 -49 -36 -27 -2 -48 0 -48 3 0 3 7 17 16 30
15 23 15 25 0 25 -9 0 -16 5 -16 10 0 15 26 12 40 -5z m-167 -80 c9 2 17 -1
17 -6 0 -5 -24 -8 -52 -8 -29 1 -45 3 -35 6 9 2 17 9 17 14 0 6 7 6 18 1 9 -5
25 -8 35 -7z m-43 -40 c0 -12 -35 -75 -42 -75 -11 0 -10 7 7 40 15 28 14 30
-4 30 -13 0 -23 -11 -31 -35 -6 -19 -16 -35 -22 -35 -10 0 -8 17 7 53 5 12 2
17 -9 17 -9 0 -22 -16 -30 -35 -8 -19 -20 -35 -25 -35 -14 0 -14 3 1 35 10 22
9 28 -3 36 -9 6 15 9 69 9 45 0 82 -2 82 -5z m51 -17 l0 -23 10 23 c10 26 43
27 45 2 2 -35 5 -40 19 -40 8 0 15 5 15 10 0 6 -4 10 -10 10 -5 0 -10 9 -10
20 0 14 7 20 23 20 17 0 19 -2 7 -10 -11 -7 -12 -12 -3 -21 8 -8 14 -6 22 10
7 12 19 21 27 21 8 0 12 -5 9 -10 -4 -6 -2 -17 4 -24 6 -7 9 -21 5 -30 -7 -18
-29 -21 -39 -6 -4 7 -11 8 -18 2 -17 -14 -86 -9 -96 6 -7 11 -9 11 -14 -2 -16
-41 -56 1 -42 44 9 28 45 26 46 -2z m210 13 c-12 -8 -12 -13 -3 -24 7 -8 10
-22 6 -31 -7 -17 -44 -23 -44 -6 0 6 7 10 15 10 20 0 19 10 -2 25 -20 15 -9
35 20 35 17 0 19 -2 8 -9z m-201 -85 c30 -2 53 -7 50 -12 -3 -5 -30 -8 -60 -7
-164 6 -198 6 -232 -1 -25 -6 -38 -5 -38 2 0 15 93 28 165 24 33 -2 85 -4 115
-6z m120 -6 c0 -7 6 -7 19 -1 18 10 31 6 31 -10 0 -6 -42 -6 -72 0 -15 2 -8
21 7 21 8 0 15 -5 15 -10z m230 -54 c0 -36 -3 -44 -17 -42 -24 1 -35 68 -13
78 27 12 30 9 30 -36z m-261 21 c6 -8 23 -12 41 -9 31 4 31 4 28 -34 -2 -32
-7 -40 -27 -42 -18 -3 -22 0 -18 12 9 23 -14 32 -29 12 -19 -27 -54 -12 -54
23 0 44 35 66 59 38z m211 -43 c0 -20 -5 -23 -35 -22 -30 1 -35 5 -36 27 -1
21 -2 22 -6 6 -8 -34 -23 -41 -23 -11 0 17 -4 25 -11 21 -6 -4 -8 -13 -5 -21
3 -7 1 -16 -4 -19 -6 -4 -10 7 -10 24 0 29 3 31 35 31 19 0 37 -6 42 -15 6
-10 13 -11 23 -5 11 7 11 10 2 10 -7 0 -10 5 -7 10 10 17 35 -9 35 -36z m120
37 c0 -5 -7 -12 -16 -15 -8 -3 -12 -10 -9 -16 9 -15 25 -12 25 4 0 21 29 41
41 29 6 -6 26 -7 50 -3 37 7 42 5 51 -16 9 -18 8 -28 0 -36 -9 -9 -12 -7 -12
10 0 29 -20 29 -21 0 -1 -21 -2 -21 -6 -3 -8 34 -23 41 -23 11 0 -23 -3 -26
-13 -17 -8 6 -17 7 -21 3 -8 -7 -106 -11 -106 -4 0 9 24 48 34 54 15 10 26 10
26 -1z"/>
<path d="M300 784 c0 -40 3 -54 13 -51 7 2 11 16 9 33 l-3 29 19 -23 18 -24
18 24 17 23 -5 -32 c-4 -25 -2 -33 9 -33 11 0 15 13 15 55 0 42 -3 55 -15 55
-8 0 -15 -4 -15 -8 0 -5 -6 -17 -14 -27 -14 -19 -15 -19 -27 8 -21 47 -39 34
-39 -29z"/>
<path d="M447 822 c-46 -50 13 -114 74 -82 22 12 27 68 7 88 -18 18 -63 14
-81 -6z m63 -17 c18 -21 5 -45 -25 -45 -40 0 -34 54 6 59 4 1 12 -6 19 -14z"/>
<path d="M577 822 c-34 -38 -8 -92 44 -92 33 0 49 18 49 55 0 17 -5 36 -12 43
-18 18 -63 14 -81 -6z m63 -17 c18 -21 5 -47 -22 -43 -26 3 -37 36 -16 49 18
12 24 11 38 -6z"/>
<path d="M692 785 c0 -41 3 -55 14 -55 8 0 14 10 14 25 0 19 5 25 16 23 10 -2
19 3 21 10 3 7 -4 12 -16 12 -12 0 -21 5 -21 10 0 6 11 10 25 10 14 0 25 5 25
10 0 6 -17 10 -39 10 l-38 0 -1 -55z"/>
<path d="M791 794 c-12 -25 -21 -50 -21 -55 0 -13 28 -11 32 3 6 17 38 19 45
2 3 -8 11 -14 19 -14 17 0 18 -5 -5 55 -25 66 -44 69 -70 9z"/>
<path d="M900 785 c0 -30 5 -55 10 -55 6 0 10 9 10 20 0 11 4 20 10 20 5 0 14
-9 20 -20 15 -27 34 -26 27 3 -4 12 -2 29 3 37 15 25 -7 50 -45 50 l-35 0 0
-55z"/>
<path d="M222 203 c92 -2 245 -2 340 0 95 1 20 3 -167 3 -187 0 -265 -2 -173
-3z"/>
<path d="M750 199 c0 -4 18 -18 40 -33 23 -15 74 -58 114 -96 40 -39 79 -70
85 -70 16 0 -14 46 -65 98 -23 23 -39 42 -35 42 3 0 -1 5 -9 10 -19 12 -80 12
984 12 753 1 900 -2 907 -13 5 -8 8 -44 7 -82 -3 -58 -1 -67 15 -67 15 0 17
11 17 100 l0 100 -1030 2 c-567 2 -1030 0 -1030 -3z"/>
</g>
</svg>
